<?xml version="1.0" encoding="utf-8"?><!DOCTYPE svg  PUBLIC '-//W3C//DTD SVG 1.1//EN'  'http://www.w3.org/Graphics/SVG/1.1/DTD/svg11.dtd'><svg enable_background="new 0 0 1000 696" height="696px" pretty_print="False" style="stroke-linejoin: round; stroke:#000; fill: none;" version="1.1" viewBox="0 0 1000 696" width="1000px" xmlns="http://www.w3.org/2000/svg" xmlns:xlink="http://www.w3.org/1999/xlink"><defs><style type="text/css"><![CDATA[path { fill-rule: evenodd; }]]></style></defs><metadata><views><view h="696.543990308" padding="0" w="1000"><proj dist="1.1" id="satellite" lat0="34.5043552396" lon0="-76" tilt="-3.00258177636" up="-32.1229440293"/><bbox h="2.84" w="4.08" x="917.99" y="530.6"/></view></views></metadata><g class="" id="Gyms"><circle cx="438.987174275" cy="302.632195697" r="2"/><circle cx="999.281138207" cy="478.555468196" r="2"/><circle cx="475.202050822" cy="440.098779379" r="2"/><circle cx="250.669484044" cy="694.543990308" r="2"/><circle cx="133.00414232" cy="108.008424559" r="2"/><circle cx="189.171427663" cy="247.015106691" r="2"/><circle cx="699.240839248" cy="463.614363977" r="2"/><circle cx="426.684044975" cy="341.449530918" r="2"/><circle cx="414.8049478" cy="263.230555687" r="2"/><circle cx="309.62153629" cy="151.008970443" r="2"/><circle cx="639.52584688" cy="245.70130183" r="2"/><circle cx="401.707931633" cy="40.4296100711" r="2"/><circle cx="289.53975549" cy="442.74604769" r="2"/><circle cx="259.976827711" cy="313.782954228" r="2"/><circle cx="0.718861793025" cy="434.529317559" r="2"/><circle cx="249.878749398" cy="351.26441516" r="2"/><circle cx="234.216174918" cy="189.079931692" r="2"/><circle cx="439.255622229" cy="0.0" r="2"/><circle cx="339.037086924" cy="312.777602719" r="2"/><circle cx="759.019048617" cy="568.879743615" r="2"/><circle cx="347.649213358" cy="258.722016664" r="2"/><circle cx="199.633425997" cy="414.10123456" r="2"/></g><g class="ward" id="Wards2"><path d="M1000.000000,455.210498L992.546011,455.538407L995.093983,450.592040L987.963025,451.554229L987.393150,456.767377L978.804259,457.292656L979.946596,451.435299L973.439780,451.279451L973.651358,458.521679L961.991480,459.594867L956.629292,458.150512L953.245331,456.972894L948.925852,459.757150L945.439643,464.096842L936.278346,465.266606L933.076841,464.714704L909.082993,486.736144L979.433290,550.150213L948.084845,575.064945L925.402329,591.881699L908.004191,603.993335L847.427433,616.058950L691.463403,650.693415L680.198799,661.717228L687.428248,668.968991L693.655646,685.258617L689.948342,691.516718L695.522779,694.543990L1000.000000,694.543990L1000.000000,455.210498Z "/><path d="M242.491986,694.543990L240.896920,688.984866L235.580914,682.714033L233.177642,677.320179L230.613563,673.353226L218.737474,667.404484L199.182802,669.468865L187.203985,671.108773L185.522002,668.226759L183.219367,664.175086L173.586092,665.045754L160.157829,667.285043L154.703876,661.168047L147.394782,652.580185L130.112702,645.662533L122.267163,641.828972L118.824186,636.780922L99.918845,633.143360L93.242450,630.071425L90.033779,625.176597L92.169957,617.386401L88.959311,605.862106L96.982475,601.460100L94.598611,595.454848L90.284233,591.938957L83.004881,583.124198L73.569776,573.417660L65.160579,567.946754L53.303887,566.348081L45.507120,564.333183L30.525593,563.758863L28.549597,563.492464L22.812316,562.542939L17.520325,563.451033L28.936780,574.729758L34.383314,589.460235L53.070644,608.252596L63.699918,618.487646L59.640171,625.536068L44.619306,634.120820L41.995994,639.555834L26.757763,650.043470L15.255444,662.968028L16.114170,681.909972L13.810534,694.543990L242.491986,694.543990Z M694.642377,694.543990L690.703662,691.498175L695.611473,683.471279L688.025254,670.377067L681.890654,662.307924L692.113183,651.625665L626.174991,585.329016L611.808045,583.630296L551.513341,588.745034L536.415412,589.116870L518.298152,589.563190L500.287085,589.059883L490.292887,588.674803L476.025622,590.605101L461.970469,590.635973L454.060292,589.568226L449.169550,588.426050L441.700902,587.899975L426.971234,587.237412L420.741838,591.337388L416.574510,592.703088L412.194618,595.968429L409.792051,599.500881L409.366861,603.300493L409.154244,605.200387L414.767879,608.851315L419.446028,611.893948L425.166236,614.595215L425.081281,617.597778L422.704987,620.893918L416.314715,626.421493L414.379379,630.260048L412.002711,633.556853L400.880333,636.516753L393.819660,639.060605L384.260137,641.508266L370.170827,644.067875L359.127846,646.315417L346.160513,647.820620L341.056455,648.578674L331.676965,651.654363L326.466063,653.363150L320.212910,655.413760L318.957051,657.656990L322.378094,662.945278L326.627781,669.794048L328.498642,671.012237L328.391795,671.963198L328.938324,675.429204L320.407608,678.245848L313.452100,679.840342L304.097785,682.679753L298.886017,684.389368L295.758931,685.415162L293.674197,686.099034L275.953611,691.912275L270.741557,693.622162L267.931703,694.543990L694.642377,694.543990Z "/><path d="M353.243966,33.861889L358.759846,36.599102L329.301102,45.463935L330.228851,46.125317L327.144753,46.847143L327.975333,47.256737L331.214998,46.824367L326.844817,48.418977L327.558614,48.753259L349.843187,41.943023L351.244719,42.846825L356.945216,41.669100L358.579986,43.290609L340.757919,46.548496L341.840845,48.066472L351.995286,46.230634L353.416031,47.525131L357.382668,47.309420L357.505187,48.460146L349.026268,49.296224L349.103415,50.291658L354.731812,50.328063L355.250452,51.293012L353.542545,52.019848L353.500767,55.775872L346.897763,56.624171L347.364500,57.492712L352.324946,56.782934L352.733306,57.613812L358.466466,56.708855L358.434628,55.868648L369.348336,55.089518L369.682517,59.970879L352.593816,61.685560L353.015248,62.398823L366.513657,60.890507L367.266360,61.439077L350.398094,63.422176L350.864840,64.290820L367.837322,61.933478L369.225527,63.522561L344.241025,66.450313L344.811930,66.944745L369.673153,64.000478L369.490588,65.080851L365.452133,65.376590L365.672253,66.212264L370.418518,65.742485L369.554291,66.761544L357.224425,67.888854L356.874460,67.095504L354.647336,67.424595L354.503927,68.151935L342.907606,69.437197L343.049609,70.411789L368.794208,67.406362L369.176477,68.472792L355.534628,70.141281L355.215554,71.322955L346.222796,72.269802L346.728289,73.352808L356.961069,72.512146L356.823736,73.748051L347.512701,74.741939L348.187336,75.429513L355.277745,74.705888L354.751201,75.501509L346.414251,76.177799L346.419334,77.821102L362.885473,76.649765L363.053698,77.389057L346.242663,79.410260L346.850378,82.388770L361.817503,80.628442L361.368513,81.852677L347.809485,84.458625L348.646244,85.377101L362.770217,82.757118L363.295399,83.663739L350.891204,87.141224L352.065801,87.836117L358.112363,85.807673L359.689273,86.825237L355.415395,88.672776L356.706822,89.443070L362.929108,86.960161L363.004320,90.226248L370.853185,91.695078L369.968528,85.572444L371.104855,85.485573L371.239499,87.654285L372.551059,87.680479L372.345360,85.024336L372.749425,83.077166L374.035245,82.771357L374.033504,85.041193L376.636993,85.270175L378.436314,92.740025L383.988272,92.348020L383.185735,88.864975L389.574570,89.391566L389.594992,88.079942L384.608440,87.890417L384.330298,86.449252L387.739330,86.188656L389.609680,85.692242L391.336269,86.490884L391.849742,94.834367L393.576795,95.065568L392.160561,86.959666L393.303448,86.813936L393.827164,89.990683L395.515382,90.007561L394.523955,87.096787L398.452587,86.666782L398.617799,91.946376L399.864475,91.993769L399.244235,87.429907L402.159882,87.103278L403.107565,87.588583L403.873478,88.019690L404.291277,94.408694L402.732520,94.917014L403.601429,96.676482L409.068286,97.617510L409.680084,95.488614L408.941761,92.551703L408.425483,87.613389L410.562157,86.973398L410.463125,89.558961L412.144841,89.634720L411.932187,87.037304L414.081912,86.279587L415.028682,98.624637L425.599527,99.830795L425.791902,93.015035L427.032425,92.553760L425.983794,86.767544L427.477530,86.280473L426.531034,83.525242L431.388165,83.189713L432.994903,101.448412L437.559681,102.059619L436.353983,98.253130L437.912438,98.312407L437.781911,99.490005L438.418035,99.963582L439.808074,99.283258L441.996456,99.307372L441.580351,100.237609L442.820608,100.343918L443.768747,100.261726L443.736726,99.420874L444.697612,99.788548L445.450603,100.337531L446.372645,100.490867L447.541732,100.109607L447.100724,99.004858L446.479081,95.575513L447.329924,95.241303L446.696037,90.227280L447.923486,89.883773L447.074038,87.380329L451.872903,87.007133L454.104708,104.723229L462.474882,106.023362L460.525142,95.364844L467.389489,94.431666L469.947558,95.640536L467.908113,96.532608L469.014307,106.331352L481.464290,104.711775L480.105293,92.101174L483.332841,91.786469L483.221503,94.490080L485.416461,94.455350L484.891346,91.845767L487.670794,91.620437L490.134357,103.870899L501.538641,102.649243L500.702681,96.621635L505.131777,96.198934L505.571816,101.844816L509.734724,101.565704L507.891937,95.582643L513.074358,95.141331L513.579551,100.765957L514.923797,101.065482L516.787769,100.627909L516.308526,94.767775L519.075060,94.660226L519.788511,98.968225L525.061911,98.837852L524.044957,83.675678L530.967595,82.780484L530.654995,89.578902L533.590102,91.346030L533.927271,95.095525L546.325288,91.109543L544.825886,80.304973L550.215907,79.682558L551.547148,80.667193L551.852258,84.142886L551.248267,85.077576L552.306809,85.129695L554.125187,84.536812L553.281023,81.974562L554.540883,81.336804L557.534648,80.871455L559.249081,80.652975L558.989313,79.602718L559.482855,79.101327L561.164800,78.609709L562.015523,78.843067L562.405198,80.418442L562.723428,81.506409L563.087118,82.749823L563.061156,84.120308L562.294846,84.824176L561.573990,84.548444L561.060949,84.091453L559.177641,84.137989L558.502244,84.585206L559.054242,85.256503L559.547794,85.890112L560.651808,86.097673L561.632437,85.721183L561.677897,85.309093L563.405360,85.540388L564.288574,85.479426L563.911904,84.921209L564.697700,84.608249L564.937978,84.132644L565.295152,83.732432L565.574396,83.471132L565.879611,82.974362L565.808163,82.486902L565.600325,81.533168L565.502890,80.713700L564.827465,79.458460L564.476761,78.664846L564.580653,78.290494L565.918394,77.513879L566.048248,76.904087L565.652096,76.522534L565.249454,76.199845L563.697388,76.081660L562.528467,75.895310L561.528379,75.313456L561.301085,75.103841L561.573804,74.334014L561.651705,73.627709L561.853011,73.505339L563.281648,73.039587L565.164844,72.425647L566.788355,73.031202L567.775475,73.730753L568.788597,74.762300L569.184754,75.143842L570.061481,75.709181L570.574538,76.166109L571.100577,76.505318L571.685066,76.882220L571.743515,76.919910L573.925482,76.435527L580.160205,80.645119L581.205735,80.247493L577.049184,77.062776L580.107797,76.008862L581.744424,77.064194L584.004308,76.440922L580.185525,74.167673L581.289470,73.807775L583.575549,75.218794L584.621047,74.821202L582.451863,73.485568L584.620747,72.551520L591.076522,77.029367L593.940303,76.038977L588.140581,72.992861L588.932799,72.621104L586.172591,70.967501L588.120691,70.332422L594.725952,75.158626L596.440374,74.940184L589.542902,70.492946L590.776695,70.090732L593.127772,71.480505L594.296633,71.099456L586.152343,66.037717L588.736775,65.308711L594.627591,69.799970L595.945872,69.767412L600.823610,73.227481L602.667778,72.399293L597.069233,69.230977L597.595203,69.002773L593.347683,66.642548L596.711340,65.659530L603.615410,70.047575L604.829754,69.821935L597.451548,65.191283L598.886589,64.666752L605.888170,69.306670L606.927143,68.967974L602.848244,66.212275L603.257294,65.908713L601.224355,64.472073L602.393171,64.091067L600.146003,62.894520L612.678074,58.809513L612.105962,56.613198L607.138444,57.381382L605.558397,50.124495L603.928519,50.145189L601.571464,50.516345L599.798776,50.697041L598.798767,50.682622L597.045514,50.686809L595.934939,49.971004L595.603668,49.568454L595.746336,48.841267L596.700689,48.133155L599.564029,47.143204L600.602885,46.804620L601.388501,46.491851L600.596081,45.729121L599.524524,45.227541L599.355318,43.921400L592.758295,44.710176L591.407765,45.036894L590.784111,43.878887L588.862054,43.711247L589.330066,45.714050L587.791224,46.045426L587.641387,43.995640L585.453148,43.971474L585.304115,45.324581L585.168035,46.560053L582.992862,46.985387L577.350298,47.633301L574.772476,47.736112L574.213429,44.288302L568.525484,44.780881L567.427730,42.246133L563.512447,42.558012L564.499913,46.092897L557.584793,46.928754L554.896571,46.330257L552.098025,46.164749L550.020290,46.841938L549.637246,47.477240L546.124547,48.678859L544.092240,49.511416L541.962535,50.659325L540.306803,51.482599L538.430290,52.037519L537.099194,52.187782L534.579853,52.328309L532.196872,52.367672L529.891816,52.268200L526.911491,52.048519L525.801181,51.899949L523.054619,51.830962L521.301496,51.835202L518.003010,52.229717L514.574661,52.666567L512.542324,52.931982L509.763234,53.724401L503.835003,54.692530L502.341545,55.179340L500.724718,55.649646L498.939096,55.948096L497.354777,56.124209L495.978265,56.119147L494.744629,55.954073L492.439647,55.854628L491.141086,55.710724L489.530870,55.554973L488.621916,55.284076L487.855841,54.853172L487.284568,54.358774L486.973029,53.779719L486.609567,53.104162L484.967659,49.272336L483.987633,47.380010L482.429632,46.186515L479.832993,44.197414L476.716958,42.377682L476.087533,40.711563L477.126391,40.372980L475.542550,38.847864L473.621192,36.979187L473.251256,36.362648L472.991889,34.746198L475.647784,31.669459L478.855403,28.696515L484.847996,26.006672L488.087723,24.440727L490.756104,22.947608L491.113338,20.847084L490.360353,19.731941L491.399094,19.393469L493.138898,20.073677L495.592818,21.088090L498.819383,20.773663L501.877179,19.720595L502.000559,18.603325L502.584857,17.846066L503.792388,16.545627L504.999900,15.812064L507.745996,14.747245L508.310788,14.166429L503.844334,15.508367L496.988804,16.948553L491.386219,17.810450L480.778502,17.525699L474.338543,18.036970L471.780697,18.530332L414.394822,18.524872L390.004127,36.450033L384.915007,38.237371L376.139359,38.415833L369.432640,38.762135L363.531776,36.478714L359.630522,34.801139L357.271831,34.120246L354.081506,33.645606L353.243966,33.861889Z "/><path d="M466.609959,-59.830838L473.072896,-66.237564L452.929332,-69.642270L454.071362,-70.919732L463.442094,-69.668548L469.670985,-76.224594L456.614481,-78.086869L457.315100,-79.899644L469.385150,-78.169121L472.915244,-78.412706L473.174387,-80.760969L468.994865,-83.701675L467.359441,-84.753925L464.867646,-84.848291L465.126807,-87.196294L468.890382,-87.289550L473.742952,-92.717036L478.413979,-96.500744L481.813739,-97.833596L485.447107,-99.016132L489.106331,-100.433391L492.220599,-101.446949L495.075329,-102.376029L497.125615,-102.816976L548.336522,-143.010782L612.293989,-133.050475L612.920085,-129.633924L612.377473,-126.968350L612.223022,-125.560401L610.848388,-124.434290L608.410056,-122.735779L608.281310,-121.562409L608.723033,-121.027236L608.802267,-119.468897L608.491275,-118.915094L605.559619,-117.282256L604.159127,-115.921298L603.018110,-114.644747L601.720631,-114.222554L601.877077,-113.368170L602.657435,-111.358820L603.099143,-110.823556L603.905269,-109.048842L604.139007,-108.898563L605.905863,-106.757383L616.056158,-105.759782L616.394875,-104.285490L615.305322,-103.478193L615.980815,-102.792554L616.396800,-102.022452L616.216478,-100.379156L615.568639,-99.036431L613.363680,-97.186919L610.950702,-95.722446L609.134056,-95.131209L608.408821,-93.084012L608.878089,-90.519904L608.541229,-89.731037L605.817028,-87.712303L605.299661,-85.279700L603.716662,-84.538023L600.083144,-83.355334L596.786526,-82.961583L594.294323,-83.056091L592.554945,-83.169211L590.964692,-83.500685L589.004869,-83.315618L586.791584,-83.670713L584.948635,-83.410472L576.426439,-50.854075L578.192134,-50.409585L584.215437,-50.558507L593.639161,-52.041125L603.243555,-55.168252L611.914234,-56.632111L618.430919,-56.715047L630.866194,-58.271839L639.459504,-59.030790L646.755004,-59.367178L655.245324,-59.186378L657.169257,-56.188059L653.965176,-53.219165L650.046695,-50.583971L640.896907,-47.038360L633.267366,-41.381881L630.074847,-39.662516L624.703755,-34.061169L623.694068,-29.426537L619.333723,-26.193410L607.937663,-20.442008L597.293037,-16.974987L584.181190,-13.837541L573.794924,-12.721133L574.055402,-10.539257L563.253331,-10.194048L562.577240,-13.147167L550.711572,-9.962080L546.686841,-9.784390L536.430208,-9.843325L530.146505,-9.609729L524.252114,-10.636211L509.737472,-10.667822L503.479888,-10.669260L498.806286,-9.146831L492.652629,-7.822192L488.498243,-6.468853L483.305214,-4.777135L480.397075,-3.376422L478.839022,-0.602167L476.631838,1.250280L474.320667,4.043386L475.410884,7.768663L477.332096,10.769991L485.069984,13.236573L489.847806,15.307455L497.456311,14.415485L502.779670,13.814644L506.596907,13.251085L509.297556,13.731546L503.844334,15.508367L496.936873,16.852104L491.327794,17.772802L480.836925,17.563347L474.786490,17.947693L471.722277,18.492684L414.388308,18.583673L390.127461,36.466527L384.673409,38.244124L375.896531,38.383520L369.326616,38.937479L366.938359,37.901770L362.629107,36.131657L359.514012,34.879424L357.826621,34.295643L354.139903,33.683259L350.270305,34.717687L346.193240,35.366256L341.134842,37.525101L336.290770,39.444074L329.673861,42.111007L322.024445,45.057880L321.183213,41.930645L340.210327,34.783156L338.718012,33.762089L341.455458,32.504217L345.462675,31.239681L344.223321,30.566640L335.393078,33.444526L332.252090,32.427653L327.291345,34.271181L315.577778,38.315711L312.515398,36.592989L335.824713,28.109810L333.982855,26.989137L337.317958,25.136674L337.716740,24.922140L338.099762,24.853993L310.017309,35.423288L308.051768,33.966692L327.877982,26.763739L325.714051,25.943262L314.286862,29.667404L310.938684,28.264816L323.456909,23.731774L320.887803,22.075418L306.187340,28.226381L299.648222,24.010059L295.158744,21.619581L291.396109,19.445713L293.552211,18.063100L288.803190,15.757517L285.453321,16.622485L281.922280,16.866542L278.987056,18.503021L274.912588,16.884305L291.430252,10.141994L287.563094,8.909176L298.755611,5.035603L294.966912,3.097486L304.601026,-0.268099L297.412251,-3.137601L301.178311,-5.497508L295.938053,-10.134295L306.324324,-13.517893L318.236006,-8.109212L326.883068,-11.605967L323.639604,-13.947826L324.446130,-16.702674L328.445261,-18.911593L327.381975,-20.604107L328.420546,-20.942414L339.269389,-17.226906L345.967983,-18.955859L342.931774,-20.911959L343.841134,-22.340879L347.344458,-20.083888L352.796916,-21.859964L348.904659,-25.122899L349.294687,-26.382586L350.800334,-26.419952L355.938654,-23.109875L357.573602,-22.056625L365.751655,-23.587743L409.005489,-39.034629L406.643475,-40.303935L408.045564,-41.666544L401.478871,-45.643266L405.113311,-46.826814L413.446500,-49.766911L425.101184,-44.276365L428.865294,-44.369669L435.614528,-42.037538L456.226840,-47.390846L452.800170,-50.351857L450.931104,-51.555105L447.893910,-53.510324L444.830798,-55.230551L443.429053,-56.132905L439.483389,-56.659836L437.692252,-56.303083L435.589697,-57.656572L438.497054,-59.056118L439.457545,-60.953970L466.609959,-59.830838Z "/><path d="M0.000000,184.575849L23.460907,190.315101L26.775243,189.233055L23.903121,187.501692L19.049698,186.133296L11.311867,185.365917L12.386997,181.380891L30.209975,141.505633L40.464420,131.577413L70.323948,133.183040L65.248794,95.923939L62.558000,97.595538L59.779338,97.821317L56.547190,97.627902L53.442551,98.527126L50.340333,98.291343L50.159916,97.669663L48.354392,98.145154L48.638244,98.959943L48.299004,99.751135L47.105769,99.232955L47.262154,98.955101L46.106181,99.218731L44.300642,99.694235L43.404491,99.873118L43.091710,100.428835L40.922900,100.795990L39.833120,100.470915L40.018479,98.822547L39.864570,97.965391L39.644464,97.696927L35.982946,97.983873L34.710309,98.172139L33.567584,98.318032L31.398803,98.685183L30.372746,98.906442L28.593700,99.146474L29.394594,100.926803L28.498440,101.105693L22.888176,102.028316L21.745438,102.174220L21.345024,101.284035L18.995896,101.029507L17.606588,101.142422L13.689836,88.130521L10.145198,88.492822L10.975341,94.459143L7.287446,94.981577L8.968513,103.392990L1.682565,104.748859L2.750944,108.597126L0.000000,108.970998L0.000000,184.575849Z "/><path d="M69.889039,133.154713L40.509507,131.732920L30.501671,141.694183L12.133704,181.406798L11.565165,185.340008L19.601352,186.237127L24.428210,187.841351L26.775243,189.233055L35.623815,187.366464L47.535737,186.089923L63.781638,186.351641L69.964455,185.923346L73.303873,185.173922L73.433842,185.131494L74.855514,182.509419L78.836668,179.392651L83.329829,179.515938L86.159977,179.954958L87.549834,179.841983L90.281639,177.814525L94.543924,176.650357L100.949306,175.354505L106.781850,174.699931L111.237790,174.040440L117.680426,173.527466L135.464472,171.243337L140.896215,169.697585L150.900537,167.567965L167.070007,167.401046L174.957517,165.167460L185.029727,161.312440L186.408404,160.181142L177.637055,155.776160L183.934326,156.559878L185.546461,155.579568L194.557487,156.726818L199.770425,153.776574L202.423962,151.320974L192.113588,150.597842L193.011949,149.282809L195.751943,149.410580L196.493963,148.373659L207.998246,149.615529L213.529002,142.701549L199.051488,141.181213L197.754041,140.469279L197.793592,140.115795L198.872616,139.423149L199.912086,139.083988L203.638739,139.343876L216.479806,140.944006L217.976757,138.752632L202.772488,137.015468L202.968319,136.383968L203.371294,136.138968L204.307171,135.606578L204.749677,135.008126L206.958496,134.287461L211.257535,133.906498L222.085458,135.595666L230.281282,126.110828L218.293928,126.956848L203.020790,128.080378L188.173374,123.163180L174.608870,120.211447L155.605400,116.651399L149.459524,118.996743L144.015972,120.659103L141.287575,121.549196L142.424198,124.809892L129.979729,127.508039L108.484140,130.549081L93.923134,133.143625L83.236023,133.566357L69.889039,133.154713Z "/><path d="M64.670814,96.055745L69.512477,133.164092L82.366189,133.509697L93.819659,132.950402L108.990643,130.497316L130.499443,127.338480L142.554124,124.767505L141.664145,121.539827L144.652388,120.564965L149.992408,118.709424L155.852047,116.684414L174.972264,120.319871L188.043451,123.205565L202.800466,127.811741L217.540716,126.975562L216.919190,125.816256L231.075677,124.603095L232.402903,122.808067L222.025702,123.809833L222.767466,122.773339L225.158706,121.539261L220.652675,121.533745L221.498022,120.690488L224.627565,120.691046L225.433411,120.201171L226.952966,120.045957L234.795777,120.438451L236.889288,118.507047L228.826157,117.845969L229.906643,116.018115L238.944918,115.793600L243.590356,108.944460L236.315241,111.317471L215.501194,110.503547L215.009572,109.302190L214.115051,108.345748L215.544086,107.879627L217.076709,107.606665L219.531870,106.919322L221.168083,106.839520L222.310968,106.693685L224.077095,106.571511L226.103044,106.364592L227.466287,106.487304L228.050067,106.864258L227.257445,107.236264L225.892549,108.248836L225.580099,108.804655L226.787128,109.205286L228.267143,109.403400L230.552948,109.111727L231.631708,108.419425L231.866848,107.434918L233.581995,106.648533L236.244359,106.347520L242.294387,107.097596L246.865984,106.514292L252.205412,104.659279L239.465810,105.523732L236.752442,105.160538L235.675308,104.717558L235.104664,104.222856L232.651145,103.774934L225.560377,104.499121L223.106898,104.051208L221.679550,103.382088L220.252210,102.712977L221.252008,102.727276L222.940816,102.176455L223.759727,101.568969L222.865168,100.612646L221.409878,101.314220L220.112454,100.602764L221.023445,99.171044L220.908333,97.960554L223.700478,97.617194L232.659111,98.099126L255.901337,98.461177L256.705565,99.106607L253.933645,103.755174L263.754014,101.006113L265.394550,97.520900L252.891738,86.168615L251.112593,86.408471L251.673028,84.750981L254.685447,84.676158L254.881003,84.045190L262.022383,83.985221L262.686369,82.520871L244.884922,82.767374L244.717087,82.028066L247.976104,81.986237L248.964160,80.983445L261.117297,80.877234L262.274576,79.478964L249.485168,79.679240L249.031265,79.260101L246.499096,79.518646L245.694927,78.873441L249.123193,78.436125L248.358412,77.437805L262.030664,77.176460L262.135667,76.234801L245.531407,74.730062L242.831452,74.249385L240.649612,74.733970L234.677664,74.412849L232.913261,73.400326L235.913819,72.308544L243.066406,73.265428L244.884832,72.672511L245.094933,70.789363L236.681472,71.037525L235.800001,69.963997L244.642464,69.235709L242.923066,63.332195L238.832507,64.098843L236.555956,67.676171L217.250022,67.960363L212.473667,67.022848L204.461802,68.160902L197.515324,68.724816L190.881260,68.733295L182.658852,71.754502L174.398550,73.994330L175.799259,74.898458L173.201425,75.745557L171.411052,74.968483L157.371256,78.525990L160.910527,81.568092L158.182696,82.457647L154.253779,79.542581L146.006326,81.665022L147.030397,82.578610L144.822134,83.298744L143.798072,82.385146L136.926643,84.512580L138.673366,87.912587L137.218070,88.614043L135.388249,88.189999L131.743838,86.089370L124.224800,87.293914L124.984864,90.562072L120.686904,90.942987L119.926904,87.674816L112.720456,88.323793L113.337242,91.752082L109.675617,92.038910L109.356179,89.307578L98.085244,90.488260L99.102535,94.806765L95.401265,95.446827L93.461501,91.542586L87.811700,92.818157L88.441295,96.128919L85.389562,96.557147L84.680716,93.952754L80.186812,94.964781L80.924325,96.198735L73.182615,98.270115L71.797927,96.112993L92.444284,87.224331L136.019894,75.849069L231.294635,49.774983L222.655737,44.201864L196.556120,49.308927L196.496648,45.360640L217.001243,39.923714L210.464140,35.706955L205.025929,35.099298L195.979384,34.307717L188.489791,34.142122L174.339355,35.354303L173.435125,50.157770L164.539489,52.490950L165.521626,38.115144L63.031157,66.087441L70.993246,83.219773L71.970441,87.890841L69.510860,90.847806L64.670814,96.055745Z "/><path d="M820.702995,349.877265L810.246451,351.470825L801.636631,352.232734L797.240755,353.441618L794.535655,355.238105L795.108018,356.875489L798.515671,357.814132L800.778734,357.758546L797.605335,359.252076L797.475343,360.434948L796.122739,361.333284L794.145776,361.067257L793.157202,358.653543L789.697571,358.188029L787.902750,358.546693L785.197495,358.062655L772.790041,352.312366L773.440345,348.679311L773.960547,346.229055L773.960520,343.948928L775.052927,343.135851L775.729144,341.546801L779.500470,339.174168L771.931710,341.875988L769.382751,342.253118L765.221167,343.613354L762.490145,343.365991L760.981580,343.403072L759.473017,343.440154L764.258853,340.963891L767.119907,340.028762L773.466229,339.322460L776.379249,337.914385L775.832962,336.041058L777.185398,335.143079L776.249031,334.537195L774.844490,333.628383L772.191529,332.671660L769.980762,332.254346L766.001423,331.959117L762.308200,331.342436L760.305550,331.313060L756.508326,331.642231L753.153230,332.510790L751.150591,332.481420L748.627784,332.622057L745.376766,332.544779L743.322094,332.988341L740.279122,333.298994L739.004710,333.487550L735.961739,333.798209L744.726623,331.617482L745.949110,329.622295L743.894598,327.786354L743.530558,326.537697L743.608616,325.828385L740.591761,325.902574L738.537156,326.346097L737.288811,326.298199L735.234202,326.741726L734.297996,326.135959L733.934005,324.887344L732.451624,324.688013L731.047336,323.779399L730.631300,323.003681L728.863052,320.846569L727.796948,319.143801L731.437916,317.953998L737.549433,317.096389L741.112314,316.615827L741.918523,316.124481L741.268388,315.197444L738.823829,314.628890L736.769335,315.072342L736.301240,314.769518L736.145239,313.908936L737.263529,312.859859L739.370023,311.943656L742.464721,311.160322L746.209562,311.303964L750.214480,311.362637L755.285641,310.845038L762.905385,309.950474L766.962321,309.536419L771.330983,306.285951L757.885704,303.159328L758.795762,301.722706L768.963991,302.729810L759.263424,297.468667L725.092964,311.823364L717.005258,312.415244L689.049782,313.574714L666.260063,340.623094L665.478793,343.158042L658.976076,345.283623L650.444614,347.616484L636.008727,351.195636L629.297863,352.933496L630.415431,354.164038L632.547360,355.290989L638.555058,355.378911L645.654323,356.934005L647.863534,359.631875L647.368145,361.845983L645.910617,363.690644L648.744684,365.272390L650.564370,366.957810L654.854792,368.975701L656.050946,369.496808L659.119153,371.230279L660.549337,371.902958L662.681560,373.030300L658.388477,375.574374L657.398866,377.722573L655.862761,380.277626L655.992171,381.375763L655.107088,382.577564L654.274299,383.306083L651.880526,384.545062L650.345701,384.818861L648.108863,384.637920L645.404031,384.153825L643.271870,383.026289L638.953769,383.525959L636.430643,383.666760L632.685223,383.522990L630.396099,383.815372L627.586644,384.277909L625.245154,385.043605L622.798912,386.755950L621.028387,389.159769L621.833369,390.949497L624.070180,391.130438L629.767803,389.495253L635.439199,388.096784L637.571333,389.224409L635.800888,391.628330L634.941827,392.593640L631.559534,393.699781L629.191746,394.702276L627.110312,395.383000L622.922979,394.699298L620.087196,395.398606L616.418456,396.826599L614.076807,397.592446L614.207823,396.408944L615.093173,395.206884L612.259232,393.624379L610.802971,393.188171L608.721541,393.868890L605.754725,395.751662L605.155728,396.631938L602.787860,397.634491L600.966564,398.230163L598.130733,398.929524L596.882240,398.881599L593.630923,398.804339L592.382437,398.756416L600.617570,410.436310L626.509771,430.264559L620.056521,431.919317L613.524511,434.284660L601.006924,438.608470L587.603182,444.135584L577.190576,449.825745L574.609029,455.008421L569.790053,460.010361L557.399291,465.435596L541.858257,472.120625L536.000146,475.179916L529.337884,476.447123L539.631643,483.126751L560.767717,496.081009L571.214992,505.912259L575.331663,511.762361L664.356344,500.782192L687.080274,494.942600L704.407105,501.610457L712.563679,486.829220L704.639952,467.719671L696.794842,447.905587L706.716706,433.015018L704.380889,422.365332L710.007471,407.743857L748.250146,408.928776L761.388688,408.054991L768.673863,405.672279L769.039201,400.075631L769.767607,400.293825L777.052472,397.911407L781.371477,395.129791L787.121375,390.739437L797.085485,386.796644L800.779684,385.132342L809.312562,380.516994L813.968849,374.659839L809.233908,369.820403L801.845837,366.304996L798.776200,364.571378L803.978684,362.870594L809.259079,360.460122L814.773516,358.201284L819.169122,354.711754L820.702995,349.877265Z "/><path d="M537.515911,310.748643L570.594911,301.761729L572.727690,300.609293L577.369466,299.434271L620.559739,319.151433L623.426238,306.822834L646.983085,310.288846L650.677405,305.208578L659.943939,268.928321L690.389565,265.587300L695.641528,238.375153L695.355475,236.420144L693.587716,236.542159L687.296580,236.775582L683.033183,236.802111L684.306998,238.889755L681.603371,238.406967L680.329544,238.595310L677.339970,238.433504L675.780256,236.666852L672.244787,236.910910L680.042960,211.610222L720.589670,196.100345L717.234911,190.144158L727.422640,186.364411L746.849026,153.194777L605.139399,172.834847L600.877765,170.588221L592.354062,170.641797L587.445597,149.287631L577.805288,150.387638L582.245106,171.440056L568.316050,172.803034L563.019891,152.711874L556.276818,153.662082L559.741112,171.054986L558.000091,170.941201L551.373384,171.967152L548.754149,154.866681L536.567285,156.343289L540.900485,173.793669L533.780038,174.753500L529.109336,158.094981L512.580781,164.851892L504.158995,170.782049L501.168438,175.167418L501.139807,179.950271L506.143256,200.370625L508.553307,211.409312L511.727718,225.726335L519.394345,226.635376L536.042126,225.635753L537.184527,227.765222L512.621453,230.098102L513.656647,236.585423L515.303286,242.077335L517.744567,244.920866L521.755694,251.689524L525.004829,251.766270L525.680181,252.456033L527.238574,254.222937L526.743136,256.433107L528.535382,258.351361L530.613815,259.948598L527.441410,261.440016L523.385947,261.854181L522.607602,259.832281L520.503071,258.471210L517.592383,257.601083L515.487900,256.240072L514.111096,255.096613L510.551352,253.300645L507.639011,254.707001L501.735677,258.228250L495.963140,260.568905L491.280967,264.374338L487.402823,269.965947L481.446341,273.960469L480.196458,276.189945L481.310864,279.696027L484.453133,282.995152L490.351054,286.304933L497.964598,289.965261L510.515274,296.567330L521.312720,302.035185L537.515911,310.748643Z "/><path d="M768.762463,302.852620L774.158280,300.520044L773.924206,300.368664L773.573097,300.141594L772.883863,299.569289L771.011467,299.497470L769.893226,299.407112L769.035027,299.231797L767.630620,298.323546L767.916631,298.002258L768.709731,297.629223L768.995739,297.307938L769.437734,296.707851L769.879725,296.107771L770.516647,294.874420L771.101629,294.113724L771.543607,293.513668L773.623652,291.694996L775.105730,290.755173L781.645323,288.277087L789.874939,285.246996L800.119318,280.989383L807.373722,278.847561L813.223910,276.936669L818.618782,274.605076L824.327916,277.409988L826.836819,276.248809L820.217652,273.741173L821.946510,272.834821L824.026512,272.155454L824.533563,272.103731L826.289351,273.238604L828.122836,273.664773L830.164006,273.339761L833.219286,272.911307L834.519284,272.486705L834.895769,271.338728L835.883410,270.332822L837.260439,268.060902L841.498557,267.132268L847.634844,266.039246L856.566321,264.602779L864.133218,264.181416L871.674304,263.996284L877.902596,264.353811L882.257738,263.500929L884.416763,264.390239L885.326708,264.093068L884.143032,263.454657L887.587372,261.760394L867.376848,254.012222L859.183138,249.856182L849.234605,245.704345L840.586241,241.128474L795.560796,258.563682L769.907001,246.790508L729.363436,263.332388L690.376557,265.705398L660.086966,268.767755L657.459002,277.823832L653.020953,295.330654L649.793293,305.269640L647.243149,310.203866L623.296208,306.865323L620.221879,318.806129L577.018611,299.207254L576.108419,299.504653L573.377832,300.396860L571.544353,301.109834L570.984998,301.634267L573.090100,302.996431L583.902898,308.347164L582.563331,309.126608L580.235039,310.912588L577.712041,312.192689L577.217279,313.265644L576.344687,315.487303L575.771397,317.269468L572.221057,318.771487L569.554795,320.212446L565.588073,322.078442L563.987394,324.082602L563.856462,325.264668L565.948513,326.745589L568.573867,327.938321L572.422041,328.275681L577.336793,328.036587L582.122327,326.700384L590.028885,324.344176L593.683175,323.035949L594.073303,322.908449L595.750044,323.613704L599.352009,322.778314L601.432682,322.098320L603.682607,321.021229L603.981907,320.581629L604.632110,320.369137L605.633218,320.383753L606.127236,320.450162L607.179960,321.131487L607.764809,321.510006L609.402394,322.569871L610.455135,323.251224L610.936092,323.435844L612.301206,323.559379L613.393170,323.886122L614.562902,324.643202L615.485623,325.367085L616.538393,326.048476L617.421917,327.127019L617.993726,327.623795L618.435491,328.163079L618.981165,328.896300L620.267910,329.729167L621.567732,330.443825L622.074850,330.392030L623.192996,330.482377L624.194166,330.497008L626.690562,330.592697L627.548623,330.768055L629.355602,331.430938L630.447634,331.757738L631.734440,332.590656L633.515319,333.490019L634.698225,334.129013L636.141234,334.683003L637.103245,335.052332L638.767177,335.876015L640.872947,337.239088L642.185367,338.975488L638.270138,341.508921L634.029366,344.718726L631.999451,347.205944L629.865565,349.499260L629.201516,350.970185L629.057007,353.411203L630.604672,353.019248L636.821440,351.214931L651.244266,347.754038L658.904520,345.364005L665.004025,343.484203L666.734822,340.296948L688.965221,313.773247L717.414811,312.680199L725.008431,312.021893L726.438763,311.554517L728.207210,310.293042L733.317339,308.281493L759.074890,297.473303L768.762463,302.852620Z "/><path d="M695.498553,238.535641L690.012571,265.596583L729.363436,263.332388L770.024024,246.866128L795.560796,258.563682L840.209232,241.137735L849.364586,245.661902L859.170217,249.974258L867.623900,254.045412L887.210314,261.769648L888.263150,261.311937L889.640521,260.178839L891.017877,259.045760L893.175143,257.658010L897.647243,256.880873L904.536491,254.631175L909.488793,252.900154L913.411018,247.975634L918.050547,245.663692L929.260395,234.830972L937.439987,224.192137L941.021166,217.787308L956.524597,212.385352L950.552830,208.530391L945.494888,207.791429L942.920257,207.266168L943.113201,205.496238L946.441799,206.002988L953.283180,208.777258L955.545166,208.721787L953.317653,205.010604L948.701037,203.672486L949.363641,203.342435L951.182919,202.748671L948.919634,201.666683L947.644512,200.717374L950.633284,199.741945L954.908638,198.460427L958.235794,197.829729L960.069301,198.255425L962.605383,199.134564L966.906410,197.617112L964.253217,196.662420L966.460782,194.804158L979.692137,192.989424L962.235033,184.123345L950.749041,177.974538L946.651113,175.330540L929.470656,167.401669L911.964576,157.875119L905.825935,154.420044L902.513689,156.069076L905.244642,157.452186L909.159110,159.472598L913.450553,161.483839L914.933834,162.819334L906.592982,165.767998L902.733806,166.685940L894.637253,167.394341L885.214500,167.625736L877.871823,168.315681L872.764836,169.185938L867.787767,170.013820L863.145675,167.775827L860.924007,168.614412L857.633916,166.617669L853.983042,167.922555L857.285987,169.801415L854.154774,170.936788L851.579875,169.275211L849.852115,170.180085L854.949329,172.838176L844.761979,175.479930L840.588291,173.543908L810.886797,186.192891L799.776942,190.387248L794.514450,192.673416L797.881543,193.963132L797.752284,195.142780L804.890100,198.614473L802.291071,199.462751L803.695385,200.369484L800.017921,201.911047L799.198745,201.382106L795.844499,199.974241L799.366129,198.711080L798.638130,198.493672L793.515660,196.070509L794.594042,195.377311L792.955747,194.319559L788.550402,195.643593L783.245819,192.597640L781.933405,193.139707L779.542592,194.374960L791.139055,199.462454L790.216457,199.877332L786.798262,200.196713L782.210489,200.897840L779.637863,202.647576L777.258155,200.352929L775.853977,199.446222L773.254914,200.294530L774.698456,201.984673L775.998000,201.560507L778.559407,203.340856L774.062715,204.353554L772.839721,201.795078L771.032758,201.133578L768.953487,201.812244L773.257093,204.844032L772.867224,204.971288L770.683843,205.456441L767.772492,205.724174L765.939641,205.298601L762.637944,204.556179L759.973586,204.857063L757.244480,205.747870L761.157572,207.769614L759.442202,208.557069L763.641636,211.395610L759.768685,212.432323L754.438518,209.621567L745.050126,198.125647L743.711734,198.903712L744.531159,200.569909L735.603442,204.280185L744.222997,211.363501L743.951219,214.979028L742.196870,216.120587L746.928917,218.671724L746.240199,219.237896L755.587190,223.127248L753.182933,224.481112L744.108868,220.388808L739.628564,236.075834L732.947473,237.574467L735.245310,224.647887L732.346752,224.797695L731.398558,227.724401L725.744339,227.863575L721.976936,240.473753L719.351163,240.420656L720.780293,235.401747L721.715730,232.592718L719.077061,232.657673L717.790603,235.239901L715.749881,235.564821L714.528546,239.832994L708.666117,239.584893L709.302930,238.352700L706.664229,238.417667L706.807095,237.119178L703.531498,237.278313L703.505689,239.790436L700.503022,239.746643L700.580898,237.900346L698.657155,238.300892L695.498553,238.535641Z "/><path d="M1000.000000,319.218382L995.146320,318.256107L990.472883,317.117523L984.445030,316.179214L977.090199,315.189915L973.440238,314.444021L971.089937,314.000420L970.866155,311.165976L961.882971,312.889542L954.973586,315.147062L948.616867,317.224059L947.732841,317.997522L949.116720,319.968447L953.680052,322.112146L957.165347,324.365898L960.733012,325.865819L955.481535,327.581864L954.236780,326.776898L950.118302,327.880377L945.501914,328.661885L944.396324,329.023173L938.731017,332.086287L937.874342,332.608600L934.945479,335.019919L931.546155,336.857946L927.925329,338.283652L924.663337,338.864978L920.627073,339.214608L919.658862,338.319174L916.949706,338.719834L914.461974,339.532876L912.610989,341.834463L912.527062,340.165250L911.613883,338.767096L910.839635,338.535399L907.328743,338.955726L904.121773,339.034365L900.665903,338.951992L897.652833,339.694369L895.994328,340.236411L895.276397,341.925275L893.866774,342.628362L891.737960,342.597009L890.520981,341.540526L892.538474,340.154046L890.768660,339.278286L884.409868,338.932901L882.640104,338.057168L879.958523,338.206510L877.249415,338.607205L873.766122,338.776222L865.942757,339.636649L860.775269,340.869483L855.714265,340.556132L851.222809,340.484620L844.517939,340.580256L841.753705,341.483712L837.275747,343.432003L836.243703,345.551207L839.995385,346.220898L845.016830,345.321038L850.131466,345.289130L856.096911,346.646569L863.180410,345.386736L866.304695,346.062184L861.881816,347.507816L857.596701,347.696538L852.260997,347.743911L847.229323,347.449556L842.916688,347.889688L839.682213,348.219792L837.000610,348.369189L834.844297,348.589264L832.936834,348.970373L828.299488,349.940828L824.641704,349.835978L820.710873,350.482334L818.085299,354.976289L813.676204,358.114342L809.598678,360.659304L805.790564,362.570838L799.770676,364.599446L801.424863,366.846867L814.113340,374.153532L813.671048,375.146751L809.258051,380.708340L800.013873,385.567302L797.054528,386.884399L787.204844,390.618913L779.932006,395.939422L769.403639,400.777116L767.798957,405.667784L761.116706,408.110195L749.079052,408.637160L709.734282,407.680479L703.340129,422.142764L706.928842,433.099309L696.926158,447.700368L704.451432,467.887531L711.929022,486.235179L703.952058,501.075000L686.781174,494.795578L662.223424,501.135076L575.180835,511.704331L585.562146,553.936033L592.719201,559.125889L597.266597,571.005409L601.299065,575.518899L609.094472,579.772415L612.741793,582.953979L615.465900,583.641905L625.752935,587.079827L691.801125,650.588770L845.378593,617.771899L908.210023,604.482732L928.693131,592.904303L949.340609,574.948224L980.167335,551.716655L910.877491,487.872348L932.505686,465.734980L920.223986,465.868300L917.401821,462.420636L912.588855,462.538536L909.103193,460.279517L906.613472,458.665991L904.179012,456.548827L902.132050,455.761769L900.583029,455.297402L897.927692,455.195029L895.382854,454.085324L896.212213,451.386077L894.275800,449.591841L888.522641,448.560887L878.454928,447.970569L874.914533,446.215792L875.080338,444.705031L883.819960,442.816721L890.789683,442.478481L894.661564,441.211767L910.646716,436.467770L930.615095,434.304699L959.928443,424.716034L959.167054,423.144760L965.195652,421.658313L970.449660,419.939845L976.837209,417.607974L984.440714,413.907740L988.559320,410.376676L991.626728,406.704219L993.864510,403.303237L999.808310,400.146338L1000.000000,400.026758L1000.000000,387.378249L999.853867,387.515530L996.812614,388.509918L995.679239,389.123090L993.743880,389.755898L991.781047,390.640291L990.675118,391.001904L988.739738,391.634732L985.586768,391.210093L982.986783,390.604655L980.386818,389.999228L976.763385,389.000704L972.614515,387.931440L970.042111,387.074494L963.597453,385.057979L957.485926,384.873149L945.982420,385.238545L944.074579,385.619786L939.705931,386.563079L938.323527,387.015086L933.733414,387.545687L929.972751,387.805088L926.129505,388.819184L922.617794,389.239759L921.566921,389.098251L918.110291,389.015702L915.981024,388.984256L914.377191,389.023564L912.579504,388.398591L911.279710,388.095936L909.703436,387.883688L907.656839,387.097581L906.384610,386.543382L905.665353,385.808385L905.195032,385.234544L904.697165,384.912253L899.719533,384.114428L900.880553,383.249748L894.300134,384.916277L892.364758,385.549093L892.393188,387.722655L890.568876,389.774460L891.537003,390.670655L887.887476,392.349144L885.730676,392.569294L883.020889,392.970274L879.591937,392.636194L884.264738,391.350756L886.476668,390.627470L887.886688,389.923856L888.991823,387.137043L890.208017,385.769223L889.571508,384.279617L886.695597,383.764786L885.119409,383.552574L883.792139,383.501502L881.165176,383.147822L877.985268,382.974949L877.238545,382.491547L878.267670,382.112070L883.277430,382.470972L886.251044,382.668860L895.042154,382.290816L899.901667,381.301086L902.635498,380.535663L905.384027,379.779772L905.911178,378.694665L907.846478,378.061921L911.495653,376.383818L911.384379,374.965155L911.162977,374.552533L909.696910,373.334340L908.424720,372.780275L904.360366,373.381557L899.494154,374.002509L896.286739,374.081151L893.328250,374.320909L891.890813,375.275855L891.006302,376.050036L885.946268,376.006897L885.088413,374.104926L884.396798,373.118603L886.608519,372.395516L889.927040,373.735447L894.626943,372.198889L898.967720,371.507220L908.174644,370.194643L913.925217,368.799634L920.532630,366.882063L926.448156,363.978355L927.995423,362.017761L930.565932,360.450105L933.495331,358.037807L936.010777,356.973116L938.526204,355.908444L939.714405,354.792728L938.883509,352.639949L939.767769,351.866058L943.031615,353.708446L945.134806,356.415197L949.200582,358.238098L952.574482,359.074927L955.891753,357.990586L960.287280,356.796264L968.194044,355.181623L974.442174,354.109162L982.791956,353.319600L988.322602,353.936439L996.204032,354.997269L999.605646,355.582696L1000.000000,355.524379L1000.000000,319.218382Z "/><path d="M272.928925,694.543990L285.657094,689.825331L309.532159,681.506621L328.918224,675.147791L326.104530,652.710928L387.719592,640.778663L411.531183,632.971701L422.899821,621.947730L425.351764,614.334359L410.379491,605.138204L409.780565,600.958016L417.429721,594.561198L425.632025,587.983608L422.818221,584.530213L414.637790,581.377226L415.529994,578.168232L411.563490,570.718719L361.221726,572.632828L362.645653,531.354796L339.196696,531.264032L345.465510,522.897460L338.835506,520.212717L330.420893,523.939732L330.680225,531.139414L321.711574,535.048359L306.836153,534.578262L299.426841,534.091153L289.419997,532.997963L283.117860,532.148351L275.878712,530.148854L271.180567,529.259633L267.476151,529.016163L258.790481,530.404258L244.399858,535.117906L235.047101,537.695901L225.637480,540.778250L221.152612,542.733072L216.667682,544.687956L215.007106,545.231952L215.333555,547.067724L227.099922,551.469996L199.577821,563.887587L94.843356,594.323828L95.111539,596.665635L96.144462,601.672729L86.942303,607.605311L90.361279,610.372798L92.272846,617.037247L91.701333,622.085819L90.250831,625.478298L91.015378,628.144656L98.025211,632.166824L107.861416,634.776348L118.748383,637.527865L122.053717,641.306930L122.875682,643.468975L131.108413,646.118938L146.906510,652.611262L155.448276,661.971193L160.798530,666.541029L181.274943,664.690269L187.888098,672.252508L210.198072,668.340929L219.882821,667.597353L230.928558,673.706747L233.951153,680.015364L240.338388,689.601734L238.945563,692.492594L243.493099,694.543990L272.928925,694.543990Z "/><path d="M0.000000,526.752626L0.150559,526.767289L2.775193,527.120904L11.450873,528.161854L19.133939,528.557310L24.794131,530.343549L28.956404,533.591425L29.606500,537.261936L28.710206,540.468328L27.537082,543.765564L27.881709,547.779497L25.906682,551.097049L26.785205,552.751426L28.961947,554.708849L30.279758,557.190588L31.101144,559.349482L32.638605,562.245083L34.567209,564.041344L38.185246,565.041229L44.457080,566.142881L70.424181,572.204883L78.454280,576.616935L80.400421,579.143099L82.637678,582.047242L86.124757,588.921023L93.927177,595.353034L198.470656,564.250360L226.241228,551.994183L216.412233,546.957190L220.648835,544.840769L229.036736,541.364500L238.006291,537.455016L248.522700,534.010252L257.293468,531.865804L269.079935,528.976465L272.089320,530.661608L276.872425,530.794606L280.215255,531.884999L283.281381,533.066065L290.193621,533.230214L299.675292,534.252605L304.678791,534.799228L310.981206,535.648950L312.585101,535.609279L317.950283,535.308981L320.412679,534.745275L325.337454,533.617881L327.274619,532.983382L331.510428,530.867496L330.657788,528.961292L330.607083,527.035320L328.704041,524.987637L303.242350,511.961519L293.046043,498.309760L283.957061,484.298933L296.576580,478.711797L298.569691,477.574077L288.790927,474.467352L286.442244,474.023195L280.852570,476.338230L276.149321,477.877912L268.160334,477.824562L230.627917,475.070672L237.628489,450.708415L220.712868,439.999026L214.171466,436.563654L193.897575,432.046928L180.628963,443.419329L159.972748,437.573309L158.064784,437.955294L153.362303,439.494231L147.496587,441.898722L140.467541,445.168869L132.608428,448.710812L129.118540,451.307710L127.891238,455.103766L129.316765,459.001576L128.337592,462.959334L126.336900,466.524210L115.823781,469.965800L108.609594,470.144916L101.529978,471.492551L93.599586,470.936169L86.719077,470.521149L81.604622,470.982998L75.326589,472.310794L67.062855,472.348700L55.316353,472.556887L41.861171,471.384678L29.398992,470.857489L21.746062,470.210789L14.312878,469.977145L6.326423,469.924683L0.000000,471.657763L0.000000,526.752626Z "/><path d="M125.074176,397.815610L127.166526,400.522622L132.109576,401.570383L134.287017,403.522961L136.102917,406.320738L141.450913,410.870616L143.486812,414.081427L141.352375,416.476008L145.211042,420.060045L148.466702,421.902867L152.772126,423.886982L157.900713,428.025524L158.717063,432.606001L161.412998,437.056529L160.994695,438.405470L179.692952,442.710448L181.984278,443.657635L193.926444,432.234434L215.278503,436.640785L220.798316,439.683161L236.138992,450.180476L237.600836,451.399477L263.952845,361.355196L289.815932,361.132132L322.102848,339.195083L343.204935,343.434152L348.437982,337.123013L351.731472,333.867396L359.287629,325.829368L361.034250,322.111548L359.495494,316.805174L359.915872,313.037227L353.280463,298.507570L353.644653,295.242996L354.505564,292.300176L357.000393,286.646203L358.718292,283.181827L360.740472,279.376301L348.695561,279.924903L342.699290,281.158288L330.189629,278.714232L322.871489,277.476899L314.067395,272.855273L290.979469,286.445601L277.141835,300.644272L277.636089,300.392023L230.830235,333.689202L219.285838,332.138150L125.074176,397.815610Z "/><path d="M284.282364,484.814196L293.151198,498.411845L303.404041,511.559617L328.284018,525.018971L339.132691,520.980359L344.520275,522.857988L343.311657,531.267047L363.027580,531.366307L360.050159,574.611440L412.939789,571.376552L416.217024,577.836779L416.262720,582.196791L423.612792,585.621952L426.375514,587.147441L442.583764,587.670191L455.662931,589.947894L470.126551,591.772216L487.555795,590.923067L506.256709,590.629911L511.375326,590.168228L529.358666,589.137951L558.297665,587.921913L593.186437,585.972600L612.638669,583.732426L613.525077,582.955680L608.301127,579.561272L601.280014,575.540336L597.163462,571.783698L593.446351,559.632044L585.791821,554.119020L577.793072,518.107545L572.776255,505.663776L561.284223,496.313689L540.561419,483.675460L529.418028,476.428528L528.759553,473.888727L525.011288,470.932580L522.110173,467.128225L518.995482,463.550945L515.936836,462.011492L488.330035,464.366626L471.571650,466.454437L453.654679,466.980403L439.634698,468.414851L433.801511,468.140318L413.721364,472.529149L400.690530,462.721795L382.754023,459.858776L377.774673,461.488501L367.747901,464.163819L361.786099,466.236500L360.651372,466.850523L356.225100,468.299341L356.547909,472.560802L354.137453,475.048261L352.223879,477.858427L346.137385,479.850903L329.102472,482.030514L313.676715,481.742308L299.436888,482.764506L284.338881,484.310414L284.282364,484.814196Z "/><path d="M383.880457,459.914635L400.504148,462.600842L413.811614,472.317619L434.527145,468.206113L440.665063,468.138262L453.522353,467.569674L474.674789,466.712714L489.027679,464.684265L501.416140,463.541511L515.712991,462.016919L519.249635,463.771366L522.285666,467.631155L524.852505,470.916707L528.525937,473.840255L529.490292,476.451483L535.988398,475.123821L542.326387,471.992965L557.805500,465.199156L569.891402,459.859095L574.487323,455.043505L577.303065,449.740097L587.472645,444.143256L601.050629,438.629992L613.422203,434.382350L620.011498,431.941199L626.513362,430.284869L601.646463,410.612711L592.008822,398.973851L571.996616,396.791042L566.772948,395.832712L564.865175,396.214234L563.926462,395.066671L560.747678,394.894179L558.398477,394.450379L560.542138,393.143238L562.381362,392.178098L564.414615,390.664688L563.726921,387.253523L557.083964,382.275505L557.943758,379.328264L559.189190,377.709190L559.605110,376.361397L559.965255,375.516570L559.303064,374.279003L558.060009,373.473739L555.822529,372.024296L554.579495,371.219067L551.568361,369.538011L550.076752,368.571784L548.336555,367.444541L547.646535,366.458581L547.772020,365.327153L549.196252,364.498025L548.754822,363.673136L549.667903,362.647696L546.131806,360.896279L543.534354,360.291771L541.682685,360.170305L540.383971,359.868056L538.255838,359.836986L536.652769,359.876535L534.966023,360.670297L535.960357,361.314348L536.954696,361.958407L537.175388,362.370834L536.622431,362.551626L535.240035,363.003608L534.189909,362.862365L532.891203,362.560107L531.316022,362.348247L529.712947,362.387800L528.358452,362.588370L526.976052,363.040355L526.090801,363.814380L523.325979,364.718371L524.292370,365.613883L524.733704,366.438785L525.119220,367.766564L525.063399,368.269434L525.781223,369.003967L523.541394,369.978658L522.435431,370.340287L518.841036,371.515598L518.288049,371.696417L513.919990,372.640083L513.366999,372.820906L510.825470,371.713408L508.476671,371.269862L505.491101,371.761480L504.164497,371.710638L501.676041,372.524340L500.293561,372.976401L498.193351,372.693895L496.646143,372.230568L494.822447,371.857657L493.219363,371.897232L489.432262,372.408659L488.382176,372.267412L486.807053,372.055543L486.530556,372.145956L483.905361,371.792846L482.358207,371.329538L478.738892,370.332321L477.247681,369.366158L476.253547,368.722060L475.507950,368.238991L474.818275,367.253072L472.830038,365.964933L469.760689,367.210822L469.232504,369.564101L467.655845,370.564235L466.865096,372.882333L465.880110,375.748645L462.530767,379.509427L460.892975,384.649371L454.169068,389.998974L449.359648,390.117773L438.081707,390.898043L438.064032,393.448615L436.719712,395.948453L431.657979,398.331191L427.289427,399.275331L421.954906,399.323532L419.826714,399.292505L419.133405,400.731193L417.911088,404.524498L416.251799,405.067268L409.975321,406.393187L363.375956,406.123709L361.557740,417.626592L363.418930,427.200179L364.178319,434.710860L366.704983,443.099219L361.992945,449.491871L366.259154,451.855170L375.832752,454.422141L383.880457,459.914635Z "/><path d="M231.763444,474.896035L267.139123,477.870779L275.929831,477.904277L279.526438,476.726868L286.996233,474.281558L289.124753,474.312584L298.101776,477.439146L297.960581,478.698473L284.014236,484.234720L299.637328,482.759546L314.650702,481.969394L329.856247,481.844411L347.359898,480.239308L352.339770,478.609087L353.423393,476.070575L355.557222,473.673636L356.832877,471.800303L358.193017,469.171516L359.993721,467.369045L361.709898,466.322093L365.582844,465.054418L367.824099,464.078229L377.726623,461.322283L383.259227,459.511485L376.109374,454.331609L367.018646,452.212995L362.021093,449.240118L366.953452,443.260430L363.929857,434.549673L363.362676,427.703506L361.862430,417.284488L364.121300,406.607034L367.922070,398.819803L250.627190,401.807500L231.763444,474.896035Z "/><path d="M252.726789,402.089928L367.893974,399.071348L364.411908,406.390778L411.025406,406.534492L416.472241,405.479960L417.606489,404.866535L419.462116,402.562778L419.217543,399.976522L423.004983,399.464823L429.361566,399.809474L433.537683,398.201129L437.188708,396.522182L438.022001,393.825912L438.330216,391.059122L451.792359,389.806855L457.217690,384.154939L461.760528,376.853478L472.954143,355.265001L455.514502,356.364295L457.704671,351.045970L377.430617,349.437799L379.566053,344.622848L343.453334,343.595082L322.599602,339.516912L289.844070,360.880752L264.697849,361.838094L252.726789,402.089928Z "/><path d="M353.472816,299.170635L357.191112,306.425178L360.496739,312.605358L360.020322,316.875687L361.779464,322.594171L360.337320,325.970419L356.823742,328.813479L351.731472,333.867396L347.885067,337.303762L344.755661,341.474390L343.950132,343.916943L379.041155,344.552291L377.735129,349.096070L458.229647,351.116555L456.095422,355.932132L472.373244,355.697159L476.032163,346.749807L482.482964,336.648798L486.997919,327.181885L485.540003,321.120949L489.721892,312.249154L487.211361,308.470121L476.561062,294.039328L465.853172,282.534700L466.078769,278.105823L470.338140,273.327227L451.165416,273.300447L444.560675,275.216173L430.742407,279.730518L403.856361,284.401545L387.108927,288.905652L376.441722,291.423279L351.678086,298.547243L353.472816,299.170635Z "/><path d="M300.911627,226.139027L323.141401,227.338910L322.735402,240.524233L326.096469,246.195598L340.913157,256.588696L307.610736,268.676510L312.989953,272.965412L323.920934,277.617794L331.211071,279.106179L343.804801,280.797096L352.949563,279.986467L360.960864,279.788106L359.519435,283.161992L357.829547,286.375289L355.555119,292.441130L353.837011,295.906026L352.230889,298.366600L376.165332,291.513589L388.434909,288.956306L405.430773,284.612979L431.323066,279.298880L445.113398,275.035607L452.215060,273.441395L470.835103,273.648742L475.484368,265.356332L480.597837,262.476560L488.975691,254.176908L492.764777,248.827817L489.126869,238.408148L485.874600,229.315003L481.324355,219.921839L474.790214,204.410689L468.556661,193.396355L464.614781,183.327332L453.220356,168.445947L446.737408,159.693482L438.377008,151.072111L404.811737,170.477079L393.732764,176.749617L393.426268,179.506582L392.676294,183.857755L390.988515,187.065875L392.422967,188.530252L391.122862,190.645697L390.844074,193.152596L388.798797,194.786625L387.305995,196.240336L383.823593,198.826791L377.606390,202.064501L371.168583,204.891090L365.006915,207.627613L355.337325,210.784585L354.045811,205.648639L309.652003,217.001760L302.212825,224.022403L300.911627,226.139027Z "/><path d="M303.346018,223.410700L309.071440,217.432973L354.017882,205.899382L355.144844,210.122497L363.541791,208.830865L369.150969,206.274678L379.760687,201.844458L386.641936,197.423537L390.788313,193.653989L391.426984,190.304841L392.422967,188.530252L392.397585,186.364374L393.256633,183.426774L393.950862,179.576908L396.107347,176.940755L404.783892,170.727683L437.824638,151.252341L436.556644,148.285734L429.186727,145.137230L365.176445,127.157338L344.504616,121.593350L326.453562,118.794928L319.636147,117.882047L308.896989,118.731046L295.011499,119.158796L282.035329,120.978955L276.704591,123.441759L254.468258,134.315583L243.193716,142.338022L238.715045,146.695534L233.564169,157.065728L250.293450,157.399844L249.240912,159.674546L252.964274,162.080622L259.229629,163.174392L258.757521,165.018457L266.068342,168.668458L255.104741,188.184776L265.542478,187.675780L270.042753,187.897397L272.626150,195.749390L269.992157,202.648408L261.896156,206.016363L300.474717,222.898285L303.346018,223.410700Z "/><path d="M179.792921,243.278533L208.976021,232.297185L229.399517,223.452700L241.725084,217.978115L284.661745,237.548557L294.558881,231.174222L302.883493,223.380481L300.648783,221.935205L296.700325,221.532888L288.835273,218.059783L262.731011,206.287360L270.939054,201.916511L272.411953,195.879703L270.104817,187.937518L267.206046,187.676160L258.341780,188.396064L267.235295,168.347965L258.791593,165.309127L260.588821,163.515449L250.876272,159.925434L249.803088,157.620216L233.626221,157.105826L222.257472,170.714042L216.560501,176.436609L201.367168,181.395865L187.250323,186.245475L163.604307,192.998773L152.169730,195.282818L143.497796,196.665001L134.245145,198.478321L129.632871,199.259663L129.187708,200.854035L131.809772,201.205493L136.974648,200.243729L143.183284,201.839356L142.112721,205.449474L152.454260,204.608997L151.633340,214.297503L158.216118,222.052877L167.664770,232.739662L171.630664,237.727427L179.792921,243.278533Z "/><path d="M0.000000,462.428857L16.978939,463.462905L42.455613,465.068418L61.721664,466.977900L79.761758,467.126771L89.681089,463.447133L93.983365,459.011681L92.618051,454.269573L98.842878,449.637777L104.624720,444.718873L112.379733,439.154505L115.846077,433.697119L114.922786,429.244322L99.503343,426.942036L94.153408,419.616487L94.470084,412.598506L100.503509,405.439293L98.543085,401.759973L109.173514,398.066280L115.579668,398.130807L125.141482,397.595094L218.708068,332.231776L229.098729,334.878748L277.612029,300.371848L279.711132,297.991931L290.933519,286.435572L313.470729,273.141683L307.302445,268.372497L283.126738,286.168866L228.913683,275.953873L284.608091,237.793291L282.836750,236.647384L241.249773,217.901647L229.715434,223.391894L210.245449,231.905072L189.496379,239.112640L173.524387,246.053652L204.955822,269.606238L213.926903,276.163441L83.214361,369.195146L60.058587,384.974316L23.595036,400.790196L0.000000,408.510210L0.000000,462.428857Z "/><path d="M256.485547,134.447606L265.137048,142.183728L285.689436,137.521795L279.279484,123.151653L256.485547,134.447606Z "/><path d="M734.579870,282.993625L736.686165,284.355597L738.168338,284.554769L739.416478,284.602610L741.158681,284.716844L744.226983,284.170097L746.567175,283.405634L749.687414,282.386366L750.467470,282.131551L754.627752,280.772561L756.967896,280.008143L762.480106,277.752038L765.158084,276.193991L767.601970,274.484671L766.275492,272.868110L764.143063,271.742591L759.514446,270.521432L752.104138,271.803091L744.823955,274.181028L739.493864,277.060831L736.867922,280.424012L734.579870,282.993625Z "/><path d="M613.845490,245.924109L642.518988,244.981752L644.992200,220.280069L619.492571,222.007192L613.845490,245.924109Z "/><path d="M609.052894,694.543990L623.274335,692.759142L633.229056,689.035613L639.694202,685.081817L630.419085,655.590985L642.410131,647.078712L663.784574,630.911519L655.936081,620.204791L622.970690,587.065359L608.603723,585.366600L580.747219,587.630668L561.640382,587.943165L544.821070,590.251666L535.656501,591.424572L527.533732,592.256125L513.371855,593.236506L494.892695,592.428977L486.355170,592.481561L479.274436,592.971850L465.166070,593.477588L458.712422,592.847428L454.289443,592.009350L448.877751,591.037828L443.880906,590.845379L439.458077,590.007365L436.438780,590.081857L429.932392,589.926690L425.818205,590.817478L420.502833,593.474364L417.685738,596.227572L414.453898,598.201770L412.625396,601.088661L411.370925,603.329973L416.516774,606.676548L421.769036,609.073300L427.436109,612.249480L431.699793,614.512980L434.560003,615.863679L434.762207,618.543382L433.241991,623.160923L428.446687,625.648338L423.704460,627.660691L417.760577,631.440274L410.614815,636.987403L402.852427,639.074643L393.580052,641.199230L389.411629,642.565978L386.551608,641.214730L414.780694,658.056539L422.639109,659.601009L423.670121,663.842579L422.989311,665.439817L424.754349,667.608977L428.965315,670.350134L423.477798,694.543990L459.111662,694.543990L466.665996,692.343793L494.267077,692.454407L522.496342,691.443015L534.058454,691.316515L552.960728,692.906966L566.970028,693.352942L578.140687,694.543990L609.052894,694.543990Z "/><path d="M251.318191,260.227978L306.059628,269.193180L307.359798,268.768431L341.034731,256.630367L326.405651,246.279759L322.659026,240.565598L323.626831,227.399443L300.359269,226.014938L294.127600,231.347323L284.528883,237.665976L251.318191,260.227978Z "/><path d="M228.119869,276.111278L283.353854,286.283607L306.436490,269.183840L251.798610,260.412289L228.119869,276.111278Z "/></g></svg>